<?xml version="1.0" encoding="UTF-8"?>
<svg id="Layer_1" xmlns="http://www.w3.org/2000/svg" version="1.1" viewBox="0 0 841.89 297.74">
  <!-- Generator: Adobe Illustrator 29.2.1, SVG Export Plug-In . SVG Version: 2.1.0 Build 116)  -->
  <defs>
    <style>
      .st0 {
        fill: #fff;
      }
    </style>
  </defs>
  <path class="st0" d="M147.79,137.06c-9.8-8.45-23.62-12.68-41.46-12.68h-57.56v140.89h26.97v-42.07h30.59c17.84,0,31.67-4.43,41.46-13.28,9.79-8.86,14.69-21.27,14.69-37.24s-4.9-27.17-14.69-35.63ZM128.36,194.02c-5.44,4.56-13.18,6.84-23.25,6.84h-29.39v-53.94h29.39c10.06,0,17.81,2.18,23.25,6.54,5.43,4.36,8.15,10.97,8.15,19.83s-2.72,16.17-8.15,20.73Z"/>
  <polygon class="st0" points="211.59 78.3 184.62 78.3 184.62 219.19 272.37 219.19 272.37 196.25 211.59 196.25 211.59 78.3"/>
  <path class="st0" d="M510.75,172.41c-4.93,5.46-10.53,9.57-16.79,12.32-6.02,2.64-12.15,3.95-18.4,3.9-6.25-.04-12.26-1.21-18.03-3.51-5.77-2.3-10.97-5.7-15.58-10.2-4.61-4.49-8.29-9.88-11.05-16.14-2.75-6.27-4.21-12.58-4.37-18.96-.16-6.38.85-12.5,3.03-18.37,2.18-5.87,5.39-11.08,9.61-15.65,4.22-4.56,9.34-8.17,15.36-10.81,6.27-2.75,13.19-4,20.78-3.74,7.59.26,14.79,1.97,21.6,5.13l6.93-23.27c-6.07-2.46-12.46-4.01-19.19-4.65-6.73-.63-13.44-.47-20.12.48-6.69.96-13.16,2.81-19.43,5.56-9.71,4.26-17.92,9.85-24.63,16.75-6.72,6.91-11.88,14.75-15.5,23.51-3.62,8.77-5.42,17.88-5.37,27.31.04,9.44,2.11,18.82,6.21,28.16,4.05,9.21,9.57,17.12,16.57,23.72,7,6.6,14.86,11.57,23.59,14.92,8.73,3.35,17.91,4.92,27.57,4.71,9.65-.21,19.21-2.39,28.67-6.55,6.26-2.75,12.05-6.36,17.35-10.81,5.3-4.45,10.01-9.56,14.15-15.34,4.13-5.77,7.38-11.81,9.74-18.12l-21.28-8.9c-2.69,6.9-6.5,13.08-11.43,18.54Z"/>
  <polygon class="st0" points="582.07 196.2 650.51 196.2 650.51 173.86 582.07 173.86 582.07 137.43 658.36 137.43 658.36 114.89 555.1 114.89 555.1 255.78 660.77 255.78 660.77 233.24 582.07 233.24 582.07 196.2"/>
  <polygon class="st0" points="802.74 255.78 745.04 174.54 799.32 114.89 767.52 114.89 703.91 187.15 703.91 114.89 676.94 114.89 676.94 255.78 703.91 255.78 703.91 219.75 726.41 195.02 770.33 255.78 802.74 255.78"/>
  <path class="st0" d="M355.38,177.12h28.78l-60.99-140.89h-27.57l-61.99,140.89h28.18l12.65-30.79h68.25l12.7,30.79ZM283.44,124.38l25.04-60.99,25.15,60.99h-50.19Z"/>
</svg>